<?xml version="1.0" standalone="no"?>
<!DOCTYPE svg PUBLIC "-//W3C//DTD SVG 20010904//EN"
 "http://www.w3.org/TR/2001/REC-SVG-20010904/DTD/svg10.dtd">
<svg version="1.0" xmlns="http://www.w3.org/2000/svg"
 width="200.000000pt" height="329.000000pt" viewBox="0 0 200.000000 329.000000"
 preserveAspectRatio="xMidYMid meet">

<g transform="translate(0.000000,329.000000) scale(0.100000,-0.100000)"
 stroke="none">
        <!-- black -->
<path 
                        d="M0 1645 l0 -1645 1000 0 1000 0 0 1645 0 1645 -1000 0 -1000 0 0
-1645z m952 1478 c25 -23 38 -76 38 -161 0 -87 -19 -136 -61 -158 -22 -11 -29
-22 -29 -43 0 -23 -6 -30 -26 -35 -27 -7 -50 3 -26 11 6 3 12 16 12 29 0 14
-4 22 -10 19 -5 -3 -10 -1 -10 4 0 6 5 11 10 11 15 0 13 317 -2 326 -18 11 22
24 56 19 16 -3 38 -13 48 -22z m172 -99 c10 -4 16 -18 16 -36 0 -17 -4 -27
-10 -23 -5 3 -10 15 -10 26 0 14 -7 19 -30 19 l-30 0 0 -99 c0 -93 1 -99 23
-106 l22 -8 -22 -4 c-16 -3 -23 -11 -23 -29 0 -20 5 -24 30 -24 20 0 30 5 30
15 0 8 5 15 10 15 6 0 10 -11 10 -25 0 -24 -1 -24 -67 -18 -69 6 -88 12 -65
20 17 6 17 254 0 271 -9 9 0 12 44 12 31 0 63 -3 72 -6z m-312 -71 c-2 -38
-13 -88 -23 -112 -18 -42 -18 -44 0 -67 10 -13 21 -20 25 -17 3 3 6 1 6 -5 0
-6 -12 -20 -27 -32 l-28 -22 -5 33 c-7 49 -40 53 -40 6 0 -29 -4 -36 -26 -41
-27 -7 -50 3 -26 11 6 3 12 16 12 29 0 13 -6 24 -12 25 -10 0 -10 2 0 6 8 3
12 35 12 109 0 68 -4 103 -10 99 -5 -3 -10 -2 -10 3 0 11 24 22 46 22 11 0 14
-21 14 -107 0 -95 2 -106 15 -92 17 17 35 102 35 170 0 44 2 49 23 49 22 0 23
-3 19 -67z m431 45 c54 -28 78 -157 37 -198 -11 -11 -29 -20 -40 -20 -16 0
-20 -7 -20 -35 0 -24 -5 -35 -14 -35 -40 0 -41 6 -36 143 3 72 2 136 -2 142
-16 19 -7 26 25 20 17 -4 40 -12 50 -17z m166 -52 c70 -62 68 -192 -4 -210
-20 -5 -25 -13 -25 -36 0 -34 1 -34 -36 -20 -21 8 -24 14 -16 22 15 15 17 254
2 263 -5 3 -10 10 -10 15 0 14 62 -10 89 -34z m-759 14 c0 -22 -16 -27 -23 -7
-7 20 -46 -21 -57 -62 -27 -99 5 -224 51 -195 5 3 9 1 9 -5 0 -16 -37 -23 -59
-11 -37 19 -51 52 -51 115 0 70 25 132 65 163 35 28 65 29 65 2z m895 -57 c47
-23 55 -31 55 -56 0 -16 -4 -26 -10 -22 -5 3 -10 15 -10 25 0 17 -26 40 -44
40 -3 0 -6 -45 -6 -100 0 -80 3 -102 15 -106 8 -4 15 -10 15 -15 0 -4 -7 -6
-15 -3 -28 11 -18 -41 10 -54 15 -7 25 -8 25 -2 0 6 5 10 10 10 6 0 10 -9 10
-21 0 -11 -4 -19 -8 -17 -4 2 -33 14 -65 27 -52 22 -73 41 -47 41 15 0 13 253
-2 268 -20 20 7 14 67 -15z m-1060 -5 c2 -7 5 -70 7 -140 3 -123 2 -127 -19
-137 -21 -10 -23 -8 -23 20 0 24 -4 30 -17 27 -13 -2 -19 -15 -21 -46 -3 -34
-7 -42 -18 -38 -9 3 -23 6 -32 6 -12 0 -13 3 -4 12 8 8 12 49 12 120 0 114 11
156 47 177 25 14 63 13 68 -1z m-278 -48 c16 -30 9 -87 -17 -147 -15 -34 -16
-43 -5 -43 24 0 37 -63 26 -125 -11 -61 -36 -103 -79 -134 l-27 -19 3 104 c3
79 0 104 -9 104 -10 0 -10 3 -1 12 16 16 17 205 0 210 -18 6 55 69 77 66 11
-2 25 -14 32 -28z m1498 -59 c37 -52 49 -159 21 -190 -10 -11 -13 -22 -8 -25
5 -3 13 -18 17 -33 3 -15 12 -31 18 -35 19 -11 1 -19 -27 -12 -20 5 -26 12
-26 34 0 34 -9 60 -21 60 -5 0 -9 -11 -9 -25 0 -14 -4 -25 -9 -25 -14 0 -57
39 -43 40 15 0 16 32 0 48 -9 9 -9 12 0 12 15 0 17 196 2 205 -5 3 -10 11 -10
17 0 19 65 -30 95 -71z m-1416 -251 c12 0 38 33 44 55 3 14 5 11 5 -10 1 -25
-7 -35 -51 -65 l-52 -36 2 154 c1 136 3 155 20 167 17 13 18 7 21 -126 1 -76
6 -139 11 -139z m1552 162 c25 -23 30 -33 27 -62 l-4 -35 -8 30 c-10 39 -20
58 -34 63 -20 6 -14 -38 19 -133 37 -109 42 -158 16 -163 -19 -4 -77 49 -77
70 0 7 10 1 21 -14 11 -16 25 -28 30 -28 17 0 9 44 -28 155 -20 62 -33 119
-30 128 9 25 32 21 68 -11z m-551 -148 c73 -33 96 -57 120 -121 22 -59 26
-129 9 -183 -5 -19 -13 -57 -16 -84 -3 -26 -16 -67 -29 -89 -23 -42 -24 -47
-9 -165 2 -20 0 -30 -6 -26 -6 3 -4 -7 5 -23 8 -17 20 -51 27 -76 6 -26 17
-52 25 -58 8 -6 14 -23 13 -38 -1 -24 -1 -24 -10 7 -5 17 -16 32 -23 32 -18 0
-36 -47 -34 -85 1 -16 -1 -37 -4 -45 -2 -8 -3 -12 -1 -7 13 21 25 3 21 -32 -3
-33 -1 -38 10 -28 9 7 12 23 9 42 -3 17 1 38 8 48 10 14 11 8 7 -36 -2 -28
-11 -59 -18 -68 -8 -8 -22 -46 -31 -84 l-17 -68 -13 34 -13 34 5 -40 c16 -113
17 -120 6 -105 -10 13 -11 13 -11 0 0 -8 4 -29 9 -46 16 -57 -18 -177 -40
-142 -6 9 -9 3 -9 -17 -1 -29 -1 -29 -11 -6 -15 37 -20 20 -7 -23 l12 -38 -54
-51 c-53 -49 -55 -50 -61 -26 -6 21 -7 21 -8 -8 -1 -18 -5 -33 -9 -33 -5 0
-22 -20 -40 -45 -36 -52 -68 -63 -51 -18 l10 28 -32 -30 c-18 -16 -28 -23 -24
-15 6 12 5 13 -6 2 -19 -18 -29 -15 -30 11 l0 22 -9 -23 c-11 -26 -23 -28 -44
-6 -9 8 -20 12 -26 9 -6 -3 -14 4 -19 17 -6 13 -10 16 -11 8 -1 -27 -20 12
-20 42 0 15 -5 30 -10 33 -7 4 -8 -3 -4 -20 5 -21 3 -26 -6 -23 -16 5 -25 32
-36 103 l-8 50 -7 -45 c-8 -49 -4 60 6 155 4 46 3 44 -10 -15 -7 -36 -14 -94
-14 -129 l-1 -64 -35 34 c-48 47 -89 141 -89 204 1 28 -4 53 -10 57 -6 4 -12
36 -13 70 -1 35 -4 70 -6 78 -3 8 -12 49 -19 90 -8 41 -18 84 -22 95 -5 14 -3
14 5 -2 15 -28 25 -29 32 -3 3 11 -5 32 -19 51 l-24 33 -1 -30 c0 -25 -2 -26
-9 -9 -14 32 -11 92 4 108 18 17 34 123 25 157 -4 14 -7 41 -8 60 -1 24 -10
44 -33 67 -24 25 -31 41 -30 67 1 35 -7 57 -42 109 -25 37 -26 115 -3 132 10
7 21 34 26 61 5 28 18 55 30 65 11 9 28 35 37 58 16 39 44 57 44 26 0 -8 16
-27 35 -42 32 -25 40 -27 107 -25 65 3 83 9 158 50 161 87 280 101 400 46z
m120 -864 c0 -13 -7 -20 -20 -20 -23 0 -26 10 -8 28 18 18 28 15 28 -8z
m-1223 -1000 c62 -22 89 -130 47 -187 -19 -25 -20 -31 -7 -49 30 -45 -6 -67
-92 -55 -36 6 -45 10 -32 15 9 5 17 16 17 26 0 10 -8 21 -17 25 -17 6 -17 7 0
16 24 14 26 199 1 199 -8 0 -12 5 -9 10 8 13 54 13 92 0z m206 -1 c12 -7 25
-17 29 -23 4 -6 8 -79 8 -163 0 -112 3 -152 13 -156 6 -2 9 -7 6 -11 -3 -3
-20 -1 -37 5 -29 10 -32 15 -32 50 0 32 -3 39 -20 39 -17 0 -20 -7 -20 -40 l0
-41 -35 28 c-36 29 -46 47 -20 37 13 -5 15 13 15 129 l0 135 28 10 c36 14 40
14 65 1z m157 -2 c63 -31 91 -172 50 -251 -17 -35 -18 -41 -5 -60 8 -11 15
-31 15 -43 0 -14 6 -23 15 -23 8 0 15 -7 15 -15 0 -10 -11 -15 -35 -15 -33 0
-35 2 -35 34 0 19 -9 44 -20 57 l-19 24 -1 -47 0 -46 -35 11 c-32 10 -48 27
-25 27 6 0 10 14 10 30 0 17 -4 30 -10 30 -5 0 -10 7 -10 16 0 8 5 12 10 9 6
-4 10 38 10 119 0 77 -4 126 -10 126 -5 0 -10 7 -10 15 0 19 54 20 90 2z m188
2 c22 -8 37 -24 53 -57 31 -64 32 -189 2 -247 -19 -37 -20 -41 -5 -72 12 -26
13 -38 4 -58 -13 -28 -44 -32 -101 -11 -37 13 -54 36 -27 36 12 0 16 10 16 35
0 25 -4 35 -16 35 -9 0 -14 6 -11 13 2 6 10 11 16 10 8 -2 11 41 11 146 0 123
-3 150 -15 155 -8 3 -15 10 -15 16 0 13 49 13 88 -1z m242 -44 c0 -30 -4 -55
-10 -55 -5 0 -10 18 -10 40 0 39 -1 40 -35 40 l-35 0 0 -171 c0 -162 1 -171
20 -176 25 -7 27 -35 3 -31 -15 2 -18 -4 -18 -37 0 -36 2 -40 33 -46 30 -6 32
-5 32 22 0 16 5 29 10 29 6 0 10 -21 10 -46 0 -38 -3 -45 -17 -41 -10 3 -36 8
-58 12 -61 9 -75 15 -75 31 0 8 5 14 10 14 15 0 13 437 -2 442 -6 2 -8 10 -4
16 4 7 34 12 77 12 l69 0 0 -55z m120 30 c56 -51 74 -226 32 -319 l-22 -48 20
-25 c11 -14 20 -36 20 -49 0 -17 4 -22 15 -18 29 12 14 -16 -22 -41 l-38 -25
-5 62 c-7 82 -30 93 -30 14 0 -64 -13 -77 -58 -56 -25 11 -25 13 -9 24 23 17
23 74 0 92 -17 13 -17 15 0 25 15 9 17 29 17 178 0 137 -3 171 -15 181 -8 7
-12 17 -9 22 9 15 82 3 104 -17z m220 -35 c0 -33 -4 -60 -10 -60 -5 0 -10 20
-10 45 0 38 -3 45 -20 45 -22 0 -40 -28 -40 -64 0 -14 20 -78 45 -142 61 -156
59 -221 -5 -271 -34 -27 -100 1 -72 29 9 9 12 9 12 -1 0 -23 44 -7 60 22 14
25 13 33 -19 120 -68 189 -74 212 -67 251 10 52 46 86 91 86 l35 0 0 -60z m98
-112 c2 -159 4 -168 22 -168 18 0 20 9 22 168 l3 167 24 3 c26 4 55 -17 34
-25 -10 -4 -13 -50 -13 -184 0 -118 3 -178 10 -174 25 15 7 -24 -25 -55 l-35
-34 0 57 c0 31 -3 57 -7 57 -22 -1 -32 -20 -35 -64 -3 -44 -6 -50 -31 -59 -32
-10 -47 -3 -29 15 17 17 17 435 0 440 -22 8 4 29 30 26 l27 -3 3 -167z m262
116 c19 -38 25 -168 11 -234 -22 -101 -80 -142 -118 -83 -22 34 -31 203 -14
279 15 67 52 102 85 81 12 -8 28 -27 36 -43z m123 45 c31 -8 42 -18 58 -52 10
-23 19 -53 19 -67 0 -42 -37 -109 -70 -128 -25 -14 -30 -23 -30 -54 0 -33 -3
-37 -31 -43 -33 -7 -52 1 -25 11 14 5 16 27 16 165 0 137 -2 159 -16 159 -8 0
-12 5 -9 10 8 13 40 13 88 -1z" />
<path fill="black" d="M901 2970 l-1 -165 20 25 c17 22 20 41 20 141 0 102 -3 120 -20 140
l-19 24 0 -165z"/>
<path fill="black" d="M1220 2895 c0 -52 4 -95 8 -95 14 0 32 48 32 86 0 34 -23 104 -34
104 -4 0 -6 -43 -6 -95z"/>
<path fill="black" d="M1380 2857 c0 -99 11 -123 31 -69 14 36 6 113 -14 143 -16 23 -17 20
-17 -74z"/>
<path fill="black" d="M422 2878 c-14 -14 -17 -198 -4 -198 23 0 32 30 32 111 0 88 -7 108
-28 87z"/>
<path fill="black" d="M140 2755 c0 -52 2 -95 6 -95 12 0 34 72 34 114 0 54 -8 76 -26 76
-11 0 -14 -20 -14 -95z"/>
<path fill="black" d="M140 2535 c0 -52 2 -95 6 -95 13 0 34 73 34 118 0 44 -12 72 -32 72
-4 0 -8 -43 -8 -95z"/>
<path fill="black" d="M1670 2717 c0 -72 3 -98 12 -95 30 10 32 113 2 168 -12 22 -13 15
-14 -73z"/>
<path fill="black" d="M1290 2485 c19 -22 39 -44 44 -50 5 -5 4 -1 -2 10 -6 11 -25 33 -44
50 l-33 30 35 -40z"/>
<path fill="black" d="M1397 2360 c3 -30 7 -57 9 -59 8 -9 2 75 -6 94 -5 12 -6 -1 -3 -35z"/>
<path fill="black" d="M1195 2380 c10 -11 20 -20 23 -20 3 0 -3 9 -13 20 -10 11 -20 20 -23
20 -3 0 3 -9 13 -20z"/>
<path fill="black" d="M1019 2355 c-14 -8 -44 -39 -67 -69 -34 -44 -46 -54 -65 -50 -16 2
-39 -7 -67 -27 -23 -17 -40 -32 -38 -34 10 -10 81 21 86 37 2 10 8 15 13 12 5
-3 6 -10 3 -16 -8 -13 5 -6 51 26 17 12 32 19 35 18 2 -2 6 2 9 9 2 8 -1 9
-10 3 -8 -4 -2 8 12 27 14 18 43 42 63 53 36 18 40 18 73 2 20 -10 40 -29 48
-49 9 -20 14 -25 15 -13 0 10 -15 33 -34 52 -38 38 -81 44 -127 19z"/>
<path fill="black" d="M686 2326 c-51 -14 -104 -15 -146 -2 l-25 8 25 -19 c33 -24 109 -22
175 5 57 24 44 27 -29 8z"/>
<path fill="black" d="M534 2276 c11 -9 24 -16 30 -16 12 0 7 5 -24 19 -24 11 -24 11 -6 -3z"/>
<path fill="black" d="M978 2246 c-15 -13 -24 -27 -20 -32 4 -4 2 -5 -3 -1 -6 3 -38 -7 -70
-23 -33 -16 -75 -30 -93 -30 -18 0 -38 -5 -45 -11 -7 -5 -34 -25 -62 -43 -27
-18 -49 -37 -48 -43 5 -28 4 -110 -2 -125 -11 -26 31 -11 56 20 18 24 30 27
112 34 95 7 112 2 101 -33 -5 -19 21 -27 74 -24 17 1 41 3 51 4 13 1 18 7 14
19 -8 31 16 41 72 31 28 -6 63 -7 79 -4 18 3 38 -1 52 -10 20 -13 25 -13 45 4
17 13 22 27 21 56 -2 59 -22 91 -74 122 -36 21 -47 33 -43 46 14 48 15 59 1
30 -16 -35 -20 -35 -86 9 -14 9 -43 19 -65 22 -33 5 -45 2 -67 -18z m-1 -258
c-3 -8 -6 -5 -6 6 -1 11 2 17 5 13 3 -3 4 -12 1 -19z"/>
<path fill="black" d="M638 2133 c7 -3 16 -2 19 1 4 3 -2 6 -13 5 -11 0 -14 -3 -6 -6z"/>
<path fill="black" d="M583 2123 c9 -2 23 -2 30 0 6 3 -1 5 -18 5 -16 0 -22 -2 -12 -5z"/>
<path fill="black" d="M1341 1974 c0 -11 3 -14 6 -6 3 7 2 16 -1 19 -3 4 -6 -2 -5 -13z"/>
<path fill="black" d="M698 1918 c-26 -9 -28 -14 -28 -67 0 -78 23 -100 103 -102 84 -2 131
36 144 116 9 54 -11 65 -111 64 -45 0 -93 -5 -108 -11z"/>
<path fill="black" d="M1050 1917 c-33 -17 -35 -37 -12 -91 26 -58 59 -79 126 -80 73 -1
103 20 111 78 9 56 0 85 -32 97 -35 13 -164 11 -193 -4z"/>
<path fill="black" d="M950 1864 c-6 -14 -10 -29 -10 -34 0 -22 -43 -105 -60 -117 -22 -16
-27 -59 -7 -66 7 -4 8 -6 1 -6 -23 -2 -38 28 -26 52 23 48 23 59 2 53 -11 -3
-29 -9 -40 -12 -11 -3 -45 0 -76 6 -49 10 -57 16 -70 46 -8 18 -14 47 -14 64
0 37 -11 39 -27 3 -10 -22 -9 -46 2 -116 8 -48 16 -91 19 -95 3 -5 7 -20 10
-35 4 -24 1 -27 -21 -27 -15 0 -24 -3 -21 -6 8 -7 159 15 173 26 24 18 155 34
155 18 0 -6 3 -8 7 -5 3 4 12 2 19 -3 8 -8 16 -6 27 4 17 18 114 14 150 -6 12
-7 45 -15 72 -19 28 -4 61 -10 75 -14 14 -5 22 -4 18 0 -4 5 -3 13 2 20 5 6
15 47 21 91 12 88 15 97 32 87 10 -6 -15 39 -49 91 -11 17 -13 15 -19 -20 -14
-92 -64 -124 -165 -106 -30 5 -57 8 -60 5 -2 -2 4 -19 14 -38 16 -28 17 -37 6
-50 -7 -8 -17 -15 -22 -15 -5 0 -2 7 6 16 18 18 14 29 -25 61 -19 16 -30 39
-39 85 -18 90 -41 113 -60 62z m-15 -188 c16 -12 14 -13 -21 -11 -47 3 -47 3
-39 15 9 14 38 12 60 -4z m119 5 c8 -12 -20 -22 -39 -15 -19 8 -9 24 15 24 10
0 21 -4 24 -9z"/>
<path fill="black" d="M547 1713 c-4 -3 -6 -18 -6 -32 1 -17 3 -20 6 -8 2 9 8 17 13 17 5 0
14 -8 19 -17 10 -16 10 -16 11 3 0 30 -27 54 -43 37z"/>
<path fill="black" d="M1070 1616 c0 -2 8 -10 18 -17 15 -13 16 -12 3 4 -13 16 -21 21 -21
13z"/>
<path fill="black" d="M869 1593 c-13 -16 -12 -17 4 -4 9 7 17 15 17 17 0 8 -8 3 -21 -13z"/>
<path fill="black" d="M1050 1606 c0 -2 8 -10 18 -17 15 -13 16 -12 3 4 -13 16 -21 21 -21
13z"/>
<path fill="black" d="M1257 1539 c7 -7 15 -10 18 -7 3 3 -2 9 -12 12 -14 6 -15 5 -6 -5z"/>
<path fill="black" d="M640 1526 c4 -4 16 -4 26 2 16 9 14 10 -8 9 -15 -1 -23 -6 -18 -11z"/>
<path fill="black" d="M1068 1513 c7 -3 16 -2 19 1 4 3 -2 6 -13 5 -11 0 -14 -3 -6 -6z"/>
<path fill="black" d="M855 1444 c26 -19 191 -18 225 1 23 13 12 14 -109 13 -116 -1 -132
-3 -116 -14z"/>
<path fill="black" d="M746 1425 c-9 -26 -7 -32 5 -12 6 10 9 21 6 23 -2 3 -7 -2 -11 -11z"/>
<path fill="black" d="M1101 1415 c1 -19 18 -51 18 -35 0 8 -4 22 -9 30 -5 8 -9 11 -9 5z"/>
<path fill="black" d="M910 1333 c0 -18 2 -33 4 -33 9 0 13 39 5 51 -6 10 -9 4 -9 -18z"/>
<path fill="black" d="M1240 1335 c0 -6 10 -26 22 -45 12 -19 29 -55 39 -80 10 -25 18 -37
19 -27 0 10 -6 33 -14 52 -17 39 -66 114 -66 100z"/>
<path fill="black" d="M1055 1296 c-9 -14 -19 -45 -21 -68 -3 -36 -2 -38 5 -13 4 17 15 45
25 63 21 41 14 54 -9 18z"/>
<path fill="black" d="M673 1125 c0 -33 2 -45 4 -27 2 18 2 45 0 60 -2 15 -4 0 -4 -33z"/>
<path fill="black" d="M832 1090 c0 -14 2 -19 5 -12 2 6 2 18 0 25 -3 6 -5 1 -5 -13z"/>
<path fill="black" d="M816 1045 c-9 -26 -7 -32 5 -12 6 10 9 21 6 23 -2 3 -7 -2 -11 -11z"/>
<path fill="black" d="M898 970 c2 -52 6 -97 8 -99 7 -8 2 144 -6 169 -4 14 -5 -18 -2 -70z"/>
<path fill="black" d="M953 965 c0 -27 2 -38 4 -22 2 15 2 37 0 50 -2 12 -4 0 -4 -28z"/>
<path fill="black" d="M1016 977 c3 -10 9 -15 12 -12 3 3 0 11 -7 18 -10 9 -11 8 -5 -6z"/>
<path fill="black" d="M160 573 l0 -97 21 21 c29 28 36 100 15 141 -28 53 -36 38 -36 -65z"/>
<path fill="black" d="M160 435 c0 -20 4 -26 18 -23 9 2 17 12 17 23 0 11 -8 21 -17 23 -14
3 -18 -3 -18 -23z"/>
<path fill="black" d="M347 674 c-4 -4 -7 -56 -7 -116 0 -102 1 -108 20 -108 20 0 21 5 18
112 -3 103 -11 132 -31 112z"/>
<path fill="black" d="M530 545 c0 -124 9 -155 30 -99 21 55 3 224 -24 224 -4 0 -6 -56 -6
-125z"/>
<path fill="black" d="M720 515 c0 -144 6 -169 32 -122 28 50 9 267 -23 267 -5 0 -9 -65 -9
-145z"/>
<path fill="black" d="M727 334 c-4 -4 -7 -23 -7 -41 0 -27 4 -34 18 -31 9 2 18 12 20 23 3
23 -20 60 -31 49z"/>
<path fill="black" d="M1070 483 c1 -161 1 -167 17 -138 22 39 29 172 14 241 -23 99 -31 70
-31 -103z"/>
<path fill="black" d="M1606 639 c-10 -50 -7 -265 4 -294 21 -56 30 -11 30 156 0 137 -3
169 -14 169 -7 0 -16 -14 -20 -31z"/>
<path fill="black" d="M1780 565 c0 -112 10 -131 36 -70 18 45 18 108 -1 145 -27 52 -35 35
-35 -75z"/>
</g>
</svg>